<svg width="235" height="37" viewBox="0 0 235 37" fill="none" xmlns="http://www.w3.org/2000/svg">
<path d="M5.34883 1.1C6.24883 1.1 6.9655 1.38333 7.49883 1.95C8.0655 2.48333 8.34883 3.2 8.34883 4.1V24.3C8.34883 25.4333 8.44883 26.3167 8.64883 26.95C8.84883 27.5833 9.28216 28.0667 9.94883 28.4C10.6155 28.7 11.5822 28.9 12.8488 29C14.1488 29.0667 15.8822 29.1 18.0488 29.1C19.4155 29.1 20.4488 29.3167 21.1488 29.75C21.8822 30.15 22.2488 31.1 22.2488 32.6C22.2488 34.8667 21.0822 36 18.7488 36H3.04883C1.04883 36 0.0488281 34.8333 0.0488281 32.5V4.1C0.0488281 3.3 0.315495 2.6 0.848828 2C1.38216 1.4 2.04883 1.1 2.84883 1.1H5.34883ZM49.4965 21.1C49.4965 22.2667 49.2298 23.05 48.6965 23.45C48.1632 23.8167 47.2965 24 46.0965 24H35.6965C33.3632 24 32.1965 24.8667 32.1965 26.6C32.1965 27.1667 32.3465 27.7167 32.6465 28.25C32.9465 28.7833 33.3298 29.2833 33.7965 29.75C34.2965 30.1833 34.8465 30.5333 35.4465 30.8C36.0798 31.0667 36.7298 31.2 37.3965 31.2C38.4632 31.2 39.3298 31.0167 39.9965 30.65C40.6965 30.2833 41.2965 29.8833 41.7965 29.45C42.3298 29.0167 42.8298 28.6167 43.2965 28.25C43.7632 27.8833 44.3298 27.7 44.9965 27.7C45.3965 27.7 45.7965 27.7833 46.1965 27.95C46.5965 28.1167 46.9632 28.3333 47.2965 28.6C47.6298 28.8333 47.8965 29.1 48.0965 29.4C48.2965 29.7 48.3965 30 48.3965 30.3C48.3965 30.7 48.1632 31.25 47.6965 31.95C47.2632 32.6167 46.5798 33.2833 45.6465 33.95C44.7465 34.6167 43.5965 35.2 42.1965 35.7C40.7965 36.1667 39.1632 36.4 37.2965 36.4C35.4632 36.4 33.7632 36.1333 32.1965 35.6C30.6632 35.0333 29.3132 34.2 28.1465 33.1C27.0132 32 26.1132 30.65 25.4465 29.05C24.8132 27.4167 24.4965 25.5333 24.4965 23.4C24.4965 20.8667 24.8465 18.7 25.5465 16.9C26.2798 15.1 27.2298 13.65 28.3965 12.55C29.5965 11.4167 30.9465 10.6 32.4465 10.1C33.9798 9.56667 35.5632 9.3 37.1965 9.3C39.0298 9.3 40.5965 9.55 41.8965 10.05C43.1965 10.5167 44.2965 11.1333 45.1965 11.9C46.1298 12.6667 46.8632 13.5167 47.3965 14.45C47.9632 15.3833 48.3965 16.2833 48.6965 17.15C49.0298 18.0167 49.2465 18.8167 49.3465 19.55C49.4465 20.25 49.4965 20.7667 49.4965 21.1ZM32.5965 17.7C32.5965 19.2333 33.9632 20 36.6965 20C40.0298 20 41.6965 19.3 41.6965 17.9C41.6965 17.5 41.5632 17.1 41.2965 16.7C41.0632 16.3 40.7465 15.9333 40.3465 15.6C39.9465 15.2667 39.4632 15 38.8965 14.8C38.3632 14.6 37.7965 14.5 37.1965 14.5C36.6965 14.5 36.1632 14.5833 35.5965 14.75C35.0632 14.9167 34.5632 15.15 34.0965 15.45C33.6632 15.7167 33.2965 16.05 32.9965 16.45C32.7298 16.85 32.5965 17.2667 32.5965 17.7ZM76.6449 21.1C76.6449 22.2667 76.3783 23.05 75.8449 23.45C75.3116 23.8167 74.4449 24 73.2449 24H62.8449C60.5116 24 59.3449 24.8667 59.3449 26.6C59.3449 27.1667 59.4949 27.7167 59.7949 28.25C60.0949 28.7833 60.4783 29.2833 60.9449 29.75C61.4449 30.1833 61.9949 30.5333 62.5949 30.8C63.2283 31.0667 63.8783 31.2 64.5449 31.2C65.6116 31.2 66.4783 31.0167 67.1449 30.65C67.8449 30.2833 68.4449 29.8833 68.9449 29.45C69.4783 29.0167 69.9783 28.6167 70.4449 28.25C70.9116 27.8833 71.4783 27.7 72.1449 27.7C72.5449 27.7 72.9449 27.7833 73.3449 27.95C73.7449 28.1167 74.1116 28.3333 74.4449 28.6C74.7783 28.8333 75.0449 29.1 75.2449 29.4C75.4449 29.7 75.5449 30 75.5449 30.3C75.5449 30.7 75.3116 31.25 74.8449 31.95C74.4116 32.6167 73.7283 33.2833 72.7949 33.95C71.8949 34.6167 70.7449 35.2 69.3449 35.7C67.9449 36.1667 66.3116 36.4 64.4449 36.4C62.6116 36.4 60.9116 36.1333 59.3449 35.6C57.8116 35.0333 56.4616 34.2 55.2949 33.1C54.1616 32 53.2616 30.65 52.5949 29.05C51.9616 27.4167 51.6449 25.5333 51.6449 23.4C51.6449 20.8667 51.9949 18.7 52.6949 16.9C53.4283 15.1 54.3783 13.65 55.5449 12.55C56.7449 11.4167 58.0949 10.6 59.5949 10.1C61.1283 9.56667 62.7116 9.3 64.3449 9.3C66.1783 9.3 67.7449 9.55 69.0449 10.05C70.3449 10.5167 71.4449 11.1333 72.3449 11.9C73.2783 12.6667 74.0116 13.5167 74.5449 14.45C75.1116 15.3833 75.5449 16.2833 75.8449 17.15C76.1783 18.0167 76.3949 18.8167 76.4949 19.55C76.5949 20.25 76.6449 20.7667 76.6449 21.1ZM59.7449 17.7C59.7449 19.2333 61.1116 20 63.8449 20C67.1783 20 68.8449 19.3 68.8449 17.9C68.8449 17.5 68.7116 17.1 68.4449 16.7C68.2116 16.3 67.8949 15.9333 67.4949 15.6C67.0949 15.2667 66.6116 15 66.0449 14.8C65.5116 14.6 64.9449 14.5 64.3449 14.5C63.8449 14.5 63.3116 14.5833 62.7449 14.75C62.2116 14.9167 61.7116 15.15 61.2449 15.45C60.8116 15.7167 60.4449 16.05 60.1449 16.45C59.8783 16.85 59.7449 17.2667 59.7449 17.7ZM96.0934 35.3C95.46 35.3 94.9434 35.3833 94.5434 35.55C94.1434 35.6833 93.7267 35.8333 93.2934 36C92.86 36.1667 92.36 36.3167 91.7934 36.45C91.26 36.6167 90.5267 36.7 89.5934 36.7C88.5267 36.7 87.36 36.5167 86.0934 36.15C84.86 35.7833 83.6934 35.1167 82.5934 34.15C81.5267 33.15 80.6267 31.8 79.8934 30.1C79.16 28.3667 78.7934 26.1667 78.7934 23.5C78.7934 20.8333 79.1434 18.65 79.8434 16.95C80.5767 15.2167 81.4767 13.85 82.5434 12.85C83.61 11.85 84.76 11.1667 85.9934 10.8C87.26 10.4 88.4267 10.2 89.4934 10.2C90.2267 10.2 90.86 10.25 91.3934 10.35C91.9267 10.4167 92.41 10.5 92.8434 10.6C93.2767 10.7 93.6767 10.8 94.0434 10.9C94.41 10.9667 94.8267 11 95.2934 11C96.06 11 96.56 10.6667 96.7934 10C97.06 9.33333 97.2267 8.46667 97.2934 7.4L97.3934 5C97.46 4.1 97.6434 3.36667 97.9434 2.8C98.2767 2.2 98.8267 1.9 99.5934 1.9H101.593C103.193 1.9 103.993 3.2 103.993 5.8V32.9C103.993 33.9667 103.727 34.7667 103.193 35.3C102.693 35.8333 101.86 36.1 100.693 36.1C100.06 36.1 99.5434 36.0667 99.1434 36C98.7434 35.9 98.3767 35.8 98.0434 35.7C97.7434 35.6 97.4434 35.5167 97.1434 35.45C96.8434 35.35 96.4934 35.3 96.0934 35.3ZM85.4934 23.4C85.4934 24.9667 85.66 26.2833 85.9934 27.35C86.3267 28.4167 86.76 29.3 87.2934 30C87.8267 30.6667 88.4267 31.15 89.0934 31.45C89.7934 31.75 90.4934 31.9 91.1934 31.9C93.2934 31.9 94.8267 31.0667 95.7934 29.4C96.7934 27.7333 97.2934 25.6 97.2934 23C97.2934 20.2 96.7434 18.15 95.6434 16.85C94.5767 15.55 93.1934 14.9 91.4934 14.9C90.9934 14.9 90.3934 15 89.6934 15.2C89.0267 15.4 88.3767 15.8 87.7434 16.4C87.11 17 86.5767 17.8667 86.1434 19C85.71 20.1 85.4934 21.5667 85.4934 23.4ZM131.528 21.1C131.528 22.2667 131.261 23.05 130.728 23.45C130.194 23.8167 129.328 24 128.128 24H117.728C115.394 24 114.228 24.8667 114.228 26.6C114.228 27.1667 114.378 27.7167 114.678 28.25C114.978 28.7833 115.361 29.2833 115.828 29.75C116.328 30.1833 116.878 30.5333 117.478 30.8C118.111 31.0667 118.761 31.2 119.428 31.2C120.494 31.2 121.361 31.0167 122.028 30.65C122.728 30.2833 123.328 29.8833 123.828 29.45C124.361 29.0167 124.861 28.6167 125.328 28.25C125.794 27.8833 126.361 27.7 127.028 27.7C127.428 27.7 127.828 27.7833 128.228 27.95C128.628 28.1167 128.994 28.3333 129.328 28.6C129.661 28.8333 129.928 29.1 130.128 29.4C130.328 29.7 130.428 30 130.428 30.3C130.428 30.7 130.194 31.25 129.728 31.95C129.294 32.6167 128.611 33.2833 127.678 33.95C126.778 34.6167 125.628 35.2 124.228 35.7C122.828 36.1667 121.194 36.4 119.328 36.4C117.494 36.4 115.794 36.1333 114.228 35.6C112.694 35.0333 111.344 34.2 110.178 33.1C109.044 32 108.144 30.65 107.478 29.05C106.844 27.4167 106.528 25.5333 106.528 23.4C106.528 20.8667 106.878 18.7 107.578 16.9C108.311 15.1 109.261 13.65 110.428 12.55C111.628 11.4167 112.978 10.6 114.478 10.1C116.011 9.56667 117.594 9.3 119.228 9.3C121.061 9.3 122.628 9.55 123.928 10.05C125.228 10.5167 126.328 11.1333 127.228 11.9C128.161 12.6667 128.894 13.5167 129.428 14.45C129.994 15.3833 130.428 16.2833 130.728 17.15C131.061 18.0167 131.278 18.8167 131.378 19.55C131.478 20.25 131.528 20.7667 131.528 21.1ZM114.628 17.7C114.628 19.2333 115.994 20 118.728 20C122.061 20 123.728 19.3 123.728 17.9C123.728 17.5 123.594 17.1 123.328 16.7C123.094 16.3 122.778 15.9333 122.378 15.6C121.978 15.2667 121.494 15 120.928 14.8C120.394 14.6 119.828 14.5 119.228 14.5C118.728 14.5 118.194 14.5833 117.628 14.75C117.094 14.9167 116.594 15.15 116.128 15.45C115.694 15.7167 115.328 16.05 115.028 16.45C114.761 16.85 114.628 17.2667 114.628 17.7ZM143.526 10.5C143.893 10.5 144.21 10.4667 144.476 10.4C144.743 10.3333 144.993 10.2667 145.226 10.2C145.46 10.1333 145.71 10.0667 145.976 10C146.243 9.93333 146.56 9.9 146.926 9.9C148.593 9.9 149.426 10.8667 149.426 12.8C149.426 14 149.21 14.9 148.776 15.5C148.343 16.1 147.46 16.6 146.126 17C144.826 17.4 143.843 18.0333 143.176 18.9C142.543 19.7333 142.226 20.7333 142.226 21.9V32.2C142.226 34.7333 141.193 36 139.126 36H137.126C135.193 36 134.226 34.6667 134.226 32V13.3C134.226 12.0333 134.476 11.0667 134.976 10.4C135.51 9.73333 136.526 9.4 138.026 9.4C138.793 9.4 139.46 9.46667 140.026 9.6C140.593 9.7 141.076 9.81667 141.476 9.95C141.91 10.0833 142.276 10.2167 142.576 10.35C142.91 10.45 143.226 10.5 143.526 10.5ZM165.958 14.4C166.191 13.4667 166.424 12.7 166.658 12.1C166.891 11.5 167.174 11.0333 167.508 10.7C167.841 10.3333 168.258 10.1 168.758 10C169.258 9.86666 169.924 9.8 170.758 9.8C171.091 9.8 171.458 9.81667 171.858 9.85C172.258 9.88333 172.624 9.98333 172.958 10.15C173.291 10.2833 173.558 10.5 173.758 10.8C173.991 11.1 174.108 11.5167 174.108 12.05C174.108 12.5833 173.991 13.2 173.758 13.9L167.258 32.6C166.458 34.8667 165.124 36 163.258 36H160.958C160.358 36 159.691 35.7667 158.958 35.3C158.224 34.8333 157.658 34 157.258 32.8L150.958 14.5C150.624 13.5333 150.458 12.7333 150.458 12.1C150.458 11.2333 150.691 10.65 151.158 10.35C151.624 10.05 152.124 9.9 152.658 9.9H154.858C156.624 9.9 157.758 10.9 158.258 12.9L160.458 21.5C160.691 22.4 160.941 23.0667 161.208 23.5C161.474 23.9 161.858 24.1 162.358 24.1C162.658 24.1 162.974 23.8833 163.308 23.45C163.674 23.0167 163.958 22.3667 164.158 21.5L165.958 14.4ZM181.216 9.4C183.349 9.4 184.416 10.8667 184.416 13.8V32.5C184.416 34.9 183.083 36.1 180.416 36.1C178.716 36.1 177.616 35.7333 177.116 35C176.649 34.2667 176.416 33.1667 176.416 31.7V13C176.416 11.9 176.683 11.0333 177.216 10.4C177.783 9.73333 178.516 9.4 179.416 9.4H181.216ZM184.316 3.3C184.316 4.56666 183.916 5.41666 183.116 5.85C182.349 6.28333 181.416 6.5 180.316 6.5C178.849 6.5 177.833 6.21666 177.266 5.65C176.699 5.08333 176.416 4.36667 176.416 3.5C176.416 2.26666 176.799 1.43333 177.566 0.999998C178.333 0.533331 179.249 0.299998 180.316 0.299998C181.783 0.299998 182.816 0.583331 183.416 1.15C184.016 1.71667 184.316 2.43333 184.316 3.3ZM192.489 0.549997C194.623 0.549997 195.689 1.78333 195.689 4.25V32.85C195.689 34.9833 194.456 36.05 191.989 36.05C190.489 36.05 189.423 35.7667 188.789 35.2C188.189 34.6 187.889 33.65 187.889 32.35V3.75C187.889 2.85 188.156 2.1 188.689 1.5C189.256 0.866664 189.989 0.549997 190.889 0.549997H192.489ZM203.671 0.549997C205.804 0.549997 206.871 1.78333 206.871 4.25V32.85C206.871 34.9833 205.638 36.05 203.171 36.05C201.671 36.05 200.604 35.7667 199.971 35.2C199.371 34.6 199.071 33.65 199.071 32.35V3.75C199.071 2.85 199.338 2.1 199.871 1.5C200.438 0.866664 201.171 0.549997 202.071 0.549997H203.671ZM234.653 21.1C234.653 22.2667 234.386 23.05 233.853 23.45C233.319 23.8167 232.453 24 231.253 24H220.853C218.519 24 217.353 24.8667 217.353 26.6C217.353 27.1667 217.503 27.7167 217.803 28.25C218.103 28.7833 218.486 29.2833 218.953 29.75C219.453 30.1833 220.003 30.5333 220.603 30.8C221.236 31.0667 221.886 31.2 222.553 31.2C223.619 31.2 224.486 31.0167 225.153 30.65C225.853 30.2833 226.453 29.8833 226.953 29.45C227.486 29.0167 227.986 28.6167 228.453 28.25C228.919 27.8833 229.486 27.7 230.153 27.7C230.553 27.7 230.953 27.7833 231.353 27.95C231.753 28.1167 232.119 28.3333 232.453 28.6C232.786 28.8333 233.053 29.1 233.253 29.4C233.453 29.7 233.553 30 233.553 30.3C233.553 30.7 233.319 31.25 232.853 31.95C232.419 32.6167 231.736 33.2833 230.803 33.95C229.903 34.6167 228.753 35.2 227.353 35.7C225.953 36.1667 224.319 36.4 222.453 36.4C220.619 36.4 218.919 36.1333 217.353 35.6C215.819 35.0333 214.469 34.2 213.303 33.1C212.169 32 211.269 30.65 210.603 29.05C209.969 27.4167 209.653 25.5333 209.653 23.4C209.653 20.8667 210.003 18.7 210.703 16.9C211.436 15.1 212.386 13.65 213.553 12.55C214.753 11.4167 216.103 10.6 217.603 10.1C219.136 9.56667 220.719 9.3 222.353 9.3C224.186 9.3 225.753 9.55 227.053 10.05C228.353 10.5167 229.453 11.1333 230.353 11.9C231.286 12.6667 232.019 13.5167 232.553 14.45C233.119 15.3833 233.553 16.2833 233.853 17.15C234.186 18.0167 234.403 18.8167 234.503 19.55C234.603 20.25 234.653 20.7667 234.653 21.1ZM217.753 17.7C217.753 19.2333 219.119 20 221.853 20C225.186 20 226.853 19.3 226.853 17.9C226.853 17.5 226.719 17.1 226.453 16.7C226.219 16.3 225.903 15.9333 225.503 15.6C225.103 15.2667 224.619 15 224.053 14.8C223.519 14.6 222.953 14.5 222.353 14.5C221.853 14.5 221.319 14.5833 220.753 14.75C220.219 14.9167 219.719 15.15 219.253 15.45C218.819 15.7167 218.453 16.05 218.153 16.45C217.886 16.85 217.753 17.2667 217.753 17.7Z" fill="#CD3B2E"/>
</svg>
